<mxfile host="app.diagrams.net" modified="2022-08-25T10:15:08.978Z" agent="5.0 (Windows NT 10.0; Win64; x64) AppleWebKit/537.36 (KHTML, like Gecko) Chrome/104.0.5112.102 Safari/537.36 Edg/104.0.1293.63" etag="6GusUntxYMw63hbUys1F" version="20.0.4" type="github">
  <diagram id="R6Ztq-pkOIHDjWPvj1B-" name="Page-1">
    <mxGraphModel dx="1483" dy="827" grid="1" gridSize="10" guides="1" tooltips="1" connect="1" arrows="1" fold="1" page="1" pageScale="1" pageWidth="850" pageHeight="1100" math="0" shadow="0">
      <root>
        <mxCell id="0" />
        <mxCell id="1" parent="0" />
        <mxCell id="10-Q_BTeWXuV71ru6LAa-2" value="MSIG Back Office" style="swimlane;html=1;childLayout=stackLayout;resizeParent=1;resizeParentMax=0;startSize=20;" vertex="1" parent="1">
          <mxGeometry x="240" y="60" width="860" height="1510" as="geometry">
            <mxRectangle x="240" y="60" width="70" height="30" as="alternateBounds" />
          </mxGeometry>
        </mxCell>
        <mxCell id="10-Q_BTeWXuV71ru6LAa-57" style="edgeStyle=orthogonalEdgeStyle;rounded=0;orthogonalLoop=1;jettySize=auto;html=1;exitX=1;exitY=0.5;exitDx=0;exitDy=0;entryX=0.5;entryY=0;entryDx=0;entryDy=0;" edge="1" parent="10-Q_BTeWXuV71ru6LAa-2" source="10-Q_BTeWXuV71ru6LAa-50" target="10-Q_BTeWXuV71ru6LAa-55">
          <mxGeometry relative="1" as="geometry" />
        </mxCell>
        <mxCell id="10-Q_BTeWXuV71ru6LAa-61" style="edgeStyle=orthogonalEdgeStyle;rounded=0;orthogonalLoop=1;jettySize=auto;html=1;entryX=1;entryY=0.5;entryDx=0;entryDy=0;exitX=1;exitY=0.5;exitDx=0;exitDy=0;" edge="1" parent="10-Q_BTeWXuV71ru6LAa-2" source="10-Q_BTeWXuV71ru6LAa-55" target="10-Q_BTeWXuV71ru6LAa-60">
          <mxGeometry relative="1" as="geometry">
            <mxPoint x="750" y="680" as="sourcePoint" />
            <Array as="points">
              <mxPoint x="770" y="930" />
              <mxPoint x="770" y="340" />
            </Array>
          </mxGeometry>
        </mxCell>
        <mxCell id="10-Q_BTeWXuV71ru6LAa-64" style="edgeStyle=orthogonalEdgeStyle;rounded=0;orthogonalLoop=1;jettySize=auto;html=1;exitX=0.5;exitY=1;exitDx=0;exitDy=0;entryX=1;entryY=0.5;entryDx=0;entryDy=0;" edge="1" parent="10-Q_BTeWXuV71ru6LAa-2" source="10-Q_BTeWXuV71ru6LAa-55" target="10-Q_BTeWXuV71ru6LAa-63">
          <mxGeometry relative="1" as="geometry" />
        </mxCell>
        <mxCell id="10-Q_BTeWXuV71ru6LAa-76" style="edgeStyle=orthogonalEdgeStyle;rounded=0;orthogonalLoop=1;jettySize=auto;html=1;exitX=1;exitY=0.5;exitDx=0;exitDy=0;entryX=0.5;entryY=0;entryDx=0;entryDy=0;" edge="1" parent="10-Q_BTeWXuV71ru6LAa-2" source="10-Q_BTeWXuV71ru6LAa-68" target="10-Q_BTeWXuV71ru6LAa-74">
          <mxGeometry relative="1" as="geometry" />
        </mxCell>
        <mxCell id="10-Q_BTeWXuV71ru6LAa-4" value="Executive" style="swimlane;html=1;startSize=20;" vertex="1" parent="10-Q_BTeWXuV71ru6LAa-2">
          <mxGeometry y="20" width="570" height="1490" as="geometry" />
        </mxCell>
        <mxCell id="10-Q_BTeWXuV71ru6LAa-23" style="edgeStyle=orthogonalEdgeStyle;rounded=0;orthogonalLoop=1;jettySize=auto;html=1;exitX=1;exitY=0.5;exitDx=0;exitDy=0;entryX=0;entryY=0.5;entryDx=0;entryDy=0;" edge="1" parent="10-Q_BTeWXuV71ru6LAa-4" source="10-Q_BTeWXuV71ru6LAa-18" target="10-Q_BTeWXuV71ru6LAa-22">
          <mxGeometry relative="1" as="geometry" />
        </mxCell>
        <mxCell id="10-Q_BTeWXuV71ru6LAa-26" style="edgeStyle=orthogonalEdgeStyle;rounded=0;orthogonalLoop=1;jettySize=auto;html=1;exitX=0.5;exitY=1;exitDx=0;exitDy=0;entryX=0.5;entryY=0;entryDx=0;entryDy=0;" edge="1" parent="10-Q_BTeWXuV71ru6LAa-4" source="10-Q_BTeWXuV71ru6LAa-18" target="10-Q_BTeWXuV71ru6LAa-25">
          <mxGeometry relative="1" as="geometry" />
        </mxCell>
        <mxCell id="10-Q_BTeWXuV71ru6LAa-18" value="Claim not executed in 14 days (status not changed)" style="rhombus;whiteSpace=wrap;html=1;" vertex="1" parent="10-Q_BTeWXuV71ru6LAa-4">
          <mxGeometry x="65" y="170" width="110" height="90" as="geometry" />
        </mxCell>
        <mxCell id="10-Q_BTeWXuV71ru6LAa-20" style="edgeStyle=orthogonalEdgeStyle;rounded=0;orthogonalLoop=1;jettySize=auto;html=1;exitX=0.5;exitY=1;exitDx=0;exitDy=0;entryX=0.5;entryY=0;entryDx=0;entryDy=0;" edge="1" parent="10-Q_BTeWXuV71ru6LAa-4" source="10-Q_BTeWXuV71ru6LAa-19" target="10-Q_BTeWXuV71ru6LAa-18">
          <mxGeometry relative="1" as="geometry" />
        </mxCell>
        <mxCell id="10-Q_BTeWXuV71ru6LAa-19" value="Receive Claim&lt;br&gt;Stt = pending_execute" style="rounded=0;whiteSpace=wrap;html=1;" vertex="1" parent="10-Q_BTeWXuV71ru6LAa-4">
          <mxGeometry x="50" y="60" width="140" height="40" as="geometry" />
        </mxCell>
        <mxCell id="10-Q_BTeWXuV71ru6LAa-22" value="Archive Claim&lt;br&gt;Stt = archive" style="rounded=0;whiteSpace=wrap;html=1;" vertex="1" parent="10-Q_BTeWXuV71ru6LAa-4">
          <mxGeometry x="310" y="195" width="140" height="40" as="geometry" />
        </mxCell>
        <mxCell id="10-Q_BTeWXuV71ru6LAa-24" value="yes" style="text;html=1;strokeColor=none;fillColor=none;align=center;verticalAlign=middle;whiteSpace=wrap;rounded=0;" vertex="1" parent="10-Q_BTeWXuV71ru6LAa-4">
          <mxGeometry x="175" y="190" width="60" height="30" as="geometry" />
        </mxCell>
        <mxCell id="10-Q_BTeWXuV71ru6LAa-25" value="Execute Claim" style="rounded=0;whiteSpace=wrap;html=1;" vertex="1" parent="10-Q_BTeWXuV71ru6LAa-4">
          <mxGeometry x="205" y="300" width="105" height="40" as="geometry" />
        </mxCell>
        <mxCell id="10-Q_BTeWXuV71ru6LAa-27" value="no" style="text;html=1;strokeColor=none;fillColor=none;align=center;verticalAlign=middle;whiteSpace=wrap;rounded=0;" vertex="1" parent="10-Q_BTeWXuV71ru6LAa-4">
          <mxGeometry x="135" y="250" width="60" height="30" as="geometry" />
        </mxCell>
        <mxCell id="10-Q_BTeWXuV71ru6LAa-37" value="yes" style="text;html=1;strokeColor=none;fillColor=none;align=center;verticalAlign=middle;whiteSpace=wrap;rounded=0;" vertex="1" parent="10-Q_BTeWXuV71ru6LAa-4">
          <mxGeometry x="140" y="400" width="60" height="30" as="geometry" />
        </mxCell>
        <mxCell id="10-Q_BTeWXuV71ru6LAa-38" value="Notify Reject&lt;br&gt;Stt = reject" style="rounded=0;whiteSpace=wrap;html=1;" vertex="1" parent="10-Q_BTeWXuV71ru6LAa-4">
          <mxGeometry x="100" y="500" width="95" height="40" as="geometry" />
        </mxCell>
        <mxCell id="10-Q_BTeWXuV71ru6LAa-51" style="edgeStyle=orthogonalEdgeStyle;rounded=0;orthogonalLoop=1;jettySize=auto;html=1;exitX=1;exitY=0.5;exitDx=0;exitDy=0;entryX=0;entryY=0.5;entryDx=0;entryDy=0;" edge="1" parent="10-Q_BTeWXuV71ru6LAa-4" source="10-Q_BTeWXuV71ru6LAa-46" target="10-Q_BTeWXuV71ru6LAa-50">
          <mxGeometry relative="1" as="geometry" />
        </mxCell>
        <mxCell id="10-Q_BTeWXuV71ru6LAa-69" style="edgeStyle=orthogonalEdgeStyle;rounded=0;orthogonalLoop=1;jettySize=auto;html=1;exitX=0.5;exitY=1;exitDx=0;exitDy=0;" edge="1" parent="10-Q_BTeWXuV71ru6LAa-4" source="10-Q_BTeWXuV71ru6LAa-46" target="10-Q_BTeWXuV71ru6LAa-68">
          <mxGeometry relative="1" as="geometry" />
        </mxCell>
        <mxCell id="10-Q_BTeWXuV71ru6LAa-46" value="Assess claim&lt;br&gt;from Third party" style="rhombus;whiteSpace=wrap;html=1;rounded=0;" vertex="1" parent="10-Q_BTeWXuV71ru6LAa-4">
          <mxGeometry x="211.25" y="797.5" width="92.5" height="80" as="geometry" />
        </mxCell>
        <mxCell id="10-Q_BTeWXuV71ru6LAa-50" value="Request SOD for Assessment&lt;br&gt;Stt = pending_accept_assess&amp;nbsp;" style="rounded=0;whiteSpace=wrap;html=1;" vertex="1" parent="10-Q_BTeWXuV71ru6LAa-4">
          <mxGeometry x="340" y="805" width="170" height="65" as="geometry" />
        </mxCell>
        <mxCell id="10-Q_BTeWXuV71ru6LAa-52" value="yes" style="text;html=1;strokeColor=none;fillColor=none;align=center;verticalAlign=middle;whiteSpace=wrap;rounded=0;" vertex="1" parent="10-Q_BTeWXuV71ru6LAa-4">
          <mxGeometry x="280" y="805" width="60" height="30" as="geometry" />
        </mxCell>
        <mxCell id="10-Q_BTeWXuV71ru6LAa-95" style="edgeStyle=orthogonalEdgeStyle;rounded=0;orthogonalLoop=1;jettySize=auto;html=1;exitX=0;exitY=0.5;exitDx=0;exitDy=0;entryX=1;entryY=0.5;entryDx=0;entryDy=0;" edge="1" parent="10-Q_BTeWXuV71ru6LAa-4" source="10-Q_BTeWXuV71ru6LAa-60" target="10-Q_BTeWXuV71ru6LAa-25">
          <mxGeometry relative="1" as="geometry" />
        </mxCell>
        <mxCell id="10-Q_BTeWXuV71ru6LAa-60" value="Assessment Request rejected&lt;br&gt;Stt = pending_execute" style="rounded=0;whiteSpace=wrap;html=1;" vertex="1" parent="10-Q_BTeWXuV71ru6LAa-4">
          <mxGeometry x="340" y="300" width="170" height="40" as="geometry" />
        </mxCell>
        <mxCell id="10-Q_BTeWXuV71ru6LAa-63" value="Assessment Request accepted&lt;br&gt;Stt = pending_asess" style="rounded=0;whiteSpace=wrap;html=1;" vertex="1" parent="10-Q_BTeWXuV71ru6LAa-4">
          <mxGeometry x="310" y="960" width="170" height="40" as="geometry" />
        </mxCell>
        <mxCell id="10-Q_BTeWXuV71ru6LAa-66" value="no" style="text;html=1;strokeColor=none;fillColor=none;align=center;verticalAlign=middle;whiteSpace=wrap;rounded=0;" vertex="1" parent="10-Q_BTeWXuV71ru6LAa-4">
          <mxGeometry x="215" y="470" width="60" height="30" as="geometry" />
        </mxCell>
        <mxCell id="10-Q_BTeWXuV71ru6LAa-68" value="Assign SOD for confirmation&lt;br&gt;Stt = pending_confirmation" style="rounded=0;whiteSpace=wrap;html=1;" vertex="1" parent="10-Q_BTeWXuV71ru6LAa-4">
          <mxGeometry x="137.5" y="1120" width="170" height="40" as="geometry" />
        </mxCell>
        <mxCell id="10-Q_BTeWXuV71ru6LAa-70" value="no" style="text;html=1;strokeColor=none;fillColor=none;align=center;verticalAlign=middle;whiteSpace=wrap;rounded=0;" vertex="1" parent="10-Q_BTeWXuV71ru6LAa-4">
          <mxGeometry x="215" y="877.5" width="60" height="30" as="geometry" />
        </mxCell>
        <mxCell id="10-Q_BTeWXuV71ru6LAa-109" style="edgeStyle=orthogonalEdgeStyle;rounded=0;orthogonalLoop=1;jettySize=auto;html=1;exitX=0.5;exitY=1;exitDx=0;exitDy=0;entryX=0.5;entryY=0;entryDx=0;entryDy=0;" edge="1" parent="10-Q_BTeWXuV71ru6LAa-4" source="10-Q_BTeWXuV71ru6LAa-105" target="10-Q_BTeWXuV71ru6LAa-46">
          <mxGeometry relative="1" as="geometry" />
        </mxCell>
        <mxCell id="10-Q_BTeWXuV71ru6LAa-105" value="Request F88 to update" style="rhombus;whiteSpace=wrap;html=1;" vertex="1" parent="10-Q_BTeWXuV71ru6LAa-4">
          <mxGeometry x="217.5" y="570" width="80" height="80" as="geometry" />
        </mxCell>
        <mxCell id="10-Q_BTeWXuV71ru6LAa-110" value="no" style="text;html=1;strokeColor=none;fillColor=none;align=center;verticalAlign=middle;whiteSpace=wrap;rounded=0;" vertex="1" parent="10-Q_BTeWXuV71ru6LAa-4">
          <mxGeometry x="215" y="650" width="60" height="30" as="geometry" />
        </mxCell>
        <mxCell id="10-Q_BTeWXuV71ru6LAa-112" value="yes" style="text;html=1;strokeColor=none;fillColor=none;align=center;verticalAlign=middle;whiteSpace=wrap;rounded=0;" vertex="1" parent="10-Q_BTeWXuV71ru6LAa-4">
          <mxGeometry x="105" y="580" width="60" height="30" as="geometry" />
        </mxCell>
        <mxCell id="10-Q_BTeWXuV71ru6LAa-127" style="edgeStyle=orthogonalEdgeStyle;rounded=0;orthogonalLoop=1;jettySize=auto;html=1;exitX=1;exitY=0.5;exitDx=0;exitDy=0;entryX=0;entryY=0.5;entryDx=0;entryDy=0;" edge="1" parent="10-Q_BTeWXuV71ru6LAa-4" source="10-Q_BTeWXuV71ru6LAa-125" target="10-Q_BTeWXuV71ru6LAa-25">
          <mxGeometry relative="1" as="geometry" />
        </mxCell>
        <mxCell id="10-Q_BTeWXuV71ru6LAa-125" value="&amp;nbsp;&lt;br&gt;stt = pending_execute" style="rounded=0;whiteSpace=wrap;html=1;" vertex="1" parent="10-Q_BTeWXuV71ru6LAa-4">
          <mxGeometry x="20" y="300" width="120" height="40" as="geometry" />
        </mxCell>
        <mxCell id="10-Q_BTeWXuV71ru6LAa-113" value="Archive Claim&lt;br&gt;Stt = archive" style="rounded=0;whiteSpace=wrap;html=1;" vertex="1" parent="10-Q_BTeWXuV71ru6LAa-4">
          <mxGeometry x="-20" y="900" width="140" height="40" as="geometry" />
        </mxCell>
        <mxCell id="10-Q_BTeWXuV71ru6LAa-30" value="Reject" style="rhombus;whiteSpace=wrap;html=1;rounded=0;" vertex="1" parent="10-Q_BTeWXuV71ru6LAa-4">
          <mxGeometry x="217.5" y="390" width="80" height="80" as="geometry" />
        </mxCell>
        <mxCell id="10-Q_BTeWXuV71ru6LAa-31" value="" style="edgeStyle=orthogonalEdgeStyle;rounded=0;orthogonalLoop=1;jettySize=auto;html=1;" edge="1" parent="10-Q_BTeWXuV71ru6LAa-4" source="10-Q_BTeWXuV71ru6LAa-25" target="10-Q_BTeWXuV71ru6LAa-30">
          <mxGeometry relative="1" as="geometry" />
        </mxCell>
        <mxCell id="10-Q_BTeWXuV71ru6LAa-39" style="edgeStyle=orthogonalEdgeStyle;rounded=0;orthogonalLoop=1;jettySize=auto;html=1;exitX=0;exitY=0.5;exitDx=0;exitDy=0;entryX=0.5;entryY=0;entryDx=0;entryDy=0;" edge="1" parent="10-Q_BTeWXuV71ru6LAa-4" source="10-Q_BTeWXuV71ru6LAa-30" target="10-Q_BTeWXuV71ru6LAa-38">
          <mxGeometry relative="1" as="geometry" />
        </mxCell>
        <mxCell id="10-Q_BTeWXuV71ru6LAa-108" style="edgeStyle=orthogonalEdgeStyle;rounded=0;orthogonalLoop=1;jettySize=auto;html=1;exitX=0.5;exitY=1;exitDx=0;exitDy=0;entryX=0.5;entryY=0;entryDx=0;entryDy=0;" edge="1" parent="10-Q_BTeWXuV71ru6LAa-4" source="10-Q_BTeWXuV71ru6LAa-30" target="10-Q_BTeWXuV71ru6LAa-105">
          <mxGeometry relative="1" as="geometry" />
        </mxCell>
        <mxCell id="10-Q_BTeWXuV71ru6LAa-5" value="SOD" style="swimlane;html=1;startSize=20;" vertex="1" parent="10-Q_BTeWXuV71ru6LAa-2">
          <mxGeometry x="570" y="20" width="290" height="1490" as="geometry">
            <mxRectangle x="240" y="20" width="40" height="460" as="alternateBounds" />
          </mxGeometry>
        </mxCell>
        <mxCell id="10-Q_BTeWXuV71ru6LAa-55" value="Accept assessment" style="rhombus;whiteSpace=wrap;html=1;" vertex="1" parent="10-Q_BTeWXuV71ru6LAa-5">
          <mxGeometry x="100" y="870" width="80" height="80" as="geometry" />
        </mxCell>
        <mxCell id="10-Q_BTeWXuV71ru6LAa-65" value="yes" style="text;html=1;strokeColor=none;fillColor=none;align=center;verticalAlign=middle;whiteSpace=wrap;rounded=0;" vertex="1" parent="10-Q_BTeWXuV71ru6LAa-5">
          <mxGeometry x="140" y="950" width="60" height="30" as="geometry" />
        </mxCell>
        <mxCell id="10-Q_BTeWXuV71ru6LAa-67" value="no" style="text;html=1;strokeColor=none;fillColor=none;align=center;verticalAlign=middle;whiteSpace=wrap;rounded=0;" vertex="1" parent="10-Q_BTeWXuV71ru6LAa-5">
          <mxGeometry x="192.5" y="880" width="60" height="30" as="geometry" />
        </mxCell>
        <mxCell id="10-Q_BTeWXuV71ru6LAa-74" value="Confirm&amp;nbsp;&lt;br&gt;payment for claim&amp;nbsp;" style="rhombus;whiteSpace=wrap;html=1;" vertex="1" parent="10-Q_BTeWXuV71ru6LAa-5">
          <mxGeometry x="150" y="1190" width="80" height="80" as="geometry" />
        </mxCell>
        <mxCell id="10-Q_BTeWXuV71ru6LAa-83" value="no" style="text;html=1;strokeColor=none;fillColor=none;align=center;verticalAlign=middle;whiteSpace=wrap;rounded=0;" vertex="1" parent="10-Q_BTeWXuV71ru6LAa-5">
          <mxGeometry x="120" y="1280" width="60" height="30" as="geometry" />
        </mxCell>
        <mxCell id="10-Q_BTeWXuV71ru6LAa-84" value="yes" style="text;html=1;strokeColor=none;fillColor=none;align=center;verticalAlign=middle;whiteSpace=wrap;rounded=0;" vertex="1" parent="10-Q_BTeWXuV71ru6LAa-5">
          <mxGeometry x="100" y="1190" width="60" height="30" as="geometry" />
        </mxCell>
        <mxCell id="10-Q_BTeWXuV71ru6LAa-80" value="Reject Claim&lt;br&gt;Stt = reject" style="rounded=0;whiteSpace=wrap;html=1;" vertex="1" parent="10-Q_BTeWXuV71ru6LAa-5">
          <mxGeometry x="143.75" y="1370" width="92.5" height="40" as="geometry" />
        </mxCell>
        <mxCell id="10-Q_BTeWXuV71ru6LAa-81" style="edgeStyle=orthogonalEdgeStyle;rounded=0;orthogonalLoop=1;jettySize=auto;html=1;exitX=0.5;exitY=1;exitDx=0;exitDy=0;entryX=0.5;entryY=0;entryDx=0;entryDy=0;" edge="1" parent="10-Q_BTeWXuV71ru6LAa-5" source="10-Q_BTeWXuV71ru6LAa-74" target="10-Q_BTeWXuV71ru6LAa-80">
          <mxGeometry relative="1" as="geometry" />
        </mxCell>
        <mxCell id="10-Q_BTeWXuV71ru6LAa-85" value="Claim Issued&lt;br&gt;Stt = issue" style="rounded=0;whiteSpace=wrap;html=1;" vertex="1" parent="10-Q_BTeWXuV71ru6LAa-5">
          <mxGeometry x="10" y="1370" width="100" height="40" as="geometry" />
        </mxCell>
        <mxCell id="10-Q_BTeWXuV71ru6LAa-88" style="edgeStyle=orthogonalEdgeStyle;rounded=0;orthogonalLoop=1;jettySize=auto;html=1;exitX=0;exitY=0.5;exitDx=0;exitDy=0;entryX=0.5;entryY=0;entryDx=0;entryDy=0;" edge="1" parent="10-Q_BTeWXuV71ru6LAa-5" source="10-Q_BTeWXuV71ru6LAa-74" target="10-Q_BTeWXuV71ru6LAa-85">
          <mxGeometry relative="1" as="geometry" />
        </mxCell>
        <mxCell id="10-Q_BTeWXuV71ru6LAa-7" value="Third Party" style="swimlane;startSize=20;" vertex="1" parent="1">
          <mxGeometry x="1100" y="80" width="220" height="1490" as="geometry" />
        </mxCell>
        <mxCell id="10-Q_BTeWXuV71ru6LAa-98" style="edgeStyle=orthogonalEdgeStyle;rounded=0;orthogonalLoop=1;jettySize=auto;html=1;exitX=0.5;exitY=0;exitDx=0;exitDy=0;entryX=0.5;entryY=1;entryDx=0;entryDy=0;" edge="1" parent="10-Q_BTeWXuV71ru6LAa-7" source="10-Q_BTeWXuV71ru6LAa-93" target="10-Q_BTeWXuV71ru6LAa-96">
          <mxGeometry relative="1" as="geometry" />
        </mxCell>
        <mxCell id="10-Q_BTeWXuV71ru6LAa-93" value="Asess Claim" style="rounded=0;whiteSpace=wrap;html=1;" vertex="1" parent="10-Q_BTeWXuV71ru6LAa-7">
          <mxGeometry x="25" y="1000" width="170" height="40" as="geometry" />
        </mxCell>
        <mxCell id="10-Q_BTeWXuV71ru6LAa-96" value="Asess Claim Done" style="rounded=0;whiteSpace=wrap;html=1;" vertex="1" parent="10-Q_BTeWXuV71ru6LAa-7">
          <mxGeometry x="25" y="300" width="170" height="40" as="geometry" />
        </mxCell>
        <mxCell id="10-Q_BTeWXuV71ru6LAa-8" value="F88" style="swimlane;startSize=20;" vertex="1" parent="1">
          <mxGeometry x="20" y="80" width="220" height="1490" as="geometry" />
        </mxCell>
        <mxCell id="10-Q_BTeWXuV71ru6LAa-9" value="Send Claim" style="points=[[0.25,0,0],[0.5,0,0],[0.75,0,0],[1,0.25,0],[1,0.5,0],[1,0.75,0],[0.75,1,0],[0.5,1,0],[0.25,1,0],[0,0.75,0],[0,0.5,0],[0,0.25,0]];shape=mxgraph.bpmn.task;whiteSpace=wrap;rectStyle=rounded;size=10;taskMarker=abstract;" vertex="1" parent="10-Q_BTeWXuV71ru6LAa-8">
          <mxGeometry x="55" y="65" width="110" height="30" as="geometry" />
        </mxCell>
        <mxCell id="10-Q_BTeWXuV71ru6LAa-42" value="Receive Reject" style="points=[[0.25,0,0],[0.5,0,0],[0.75,0,0],[1,0.25,0],[1,0.5,0],[1,0.75,0],[0.75,1,0],[0.5,1,0],[0.25,1,0],[0,0.75,0],[0,0.5,0],[0,0.25,0]];shape=mxgraph.bpmn.task;whiteSpace=wrap;rectStyle=rounded;size=10;taskMarker=abstract;" vertex="1" parent="10-Q_BTeWXuV71ru6LAa-8">
          <mxGeometry x="30" y="510" width="110" height="30" as="geometry" />
        </mxCell>
        <mxCell id="10-Q_BTeWXuV71ru6LAa-104" style="edgeStyle=orthogonalEdgeStyle;rounded=0;orthogonalLoop=1;jettySize=auto;html=1;exitX=0.5;exitY=1;exitDx=0;exitDy=0;exitPerimeter=0;" edge="1" parent="10-Q_BTeWXuV71ru6LAa-8" source="10-Q_BTeWXuV71ru6LAa-102" target="10-Q_BTeWXuV71ru6LAa-103">
          <mxGeometry relative="1" as="geometry" />
        </mxCell>
        <mxCell id="10-Q_BTeWXuV71ru6LAa-102" value="Receive Request update&#xa;Stt = pending_update" style="points=[[0.25,0,0],[0.5,0,0],[0.75,0,0],[1,0.25,0],[1,0.5,0],[1,0.75,0],[0.75,1,0],[0.5,1,0],[0.25,1,0],[0,0.75,0],[0,0.5,0],[0,0.25,0]];shape=mxgraph.bpmn.task;whiteSpace=wrap;rectStyle=rounded;size=10;taskMarker=abstract;" vertex="1" parent="10-Q_BTeWXuV71ru6LAa-8">
          <mxGeometry x="30" y="595" width="150" height="30" as="geometry" />
        </mxCell>
        <mxCell id="10-Q_BTeWXuV71ru6LAa-103" value="Claim update in 14 days" style="rhombus;whiteSpace=wrap;html=1;" vertex="1" parent="10-Q_BTeWXuV71ru6LAa-8">
          <mxGeometry x="65" y="720" width="80" height="80" as="geometry" />
        </mxCell>
        <mxCell id="10-Q_BTeWXuV71ru6LAa-116" value="no" style="text;html=1;strokeColor=none;fillColor=none;align=center;verticalAlign=middle;whiteSpace=wrap;rounded=0;" vertex="1" parent="10-Q_BTeWXuV71ru6LAa-8">
          <mxGeometry x="100" y="810" width="60" height="30" as="geometry" />
        </mxCell>
        <mxCell id="10-Q_BTeWXuV71ru6LAa-118" value="yes" style="text;html=1;strokeColor=none;fillColor=none;align=center;verticalAlign=middle;whiteSpace=wrap;rounded=0;" vertex="1" parent="10-Q_BTeWXuV71ru6LAa-8">
          <mxGeometry x="140" y="730" width="60" height="30" as="geometry" />
        </mxCell>
        <mxCell id="10-Q_BTeWXuV71ru6LAa-21" style="edgeStyle=orthogonalEdgeStyle;rounded=0;orthogonalLoop=1;jettySize=auto;html=1;exitX=1;exitY=0.5;exitDx=0;exitDy=0;exitPerimeter=0;" edge="1" parent="1" source="10-Q_BTeWXuV71ru6LAa-9" target="10-Q_BTeWXuV71ru6LAa-19">
          <mxGeometry relative="1" as="geometry" />
        </mxCell>
        <mxCell id="10-Q_BTeWXuV71ru6LAa-40" style="edgeStyle=orthogonalEdgeStyle;rounded=0;orthogonalLoop=1;jettySize=auto;html=1;exitX=0;exitY=0.75;exitDx=0;exitDy=0;" edge="1" parent="1" source="10-Q_BTeWXuV71ru6LAa-38">
          <mxGeometry relative="1" as="geometry">
            <mxPoint x="160" y="610.1428571428573" as="targetPoint" />
          </mxGeometry>
        </mxCell>
        <mxCell id="10-Q_BTeWXuV71ru6LAa-78" value="" style="swimlane;startSize=0;" vertex="1" parent="1">
          <mxGeometry x="20" y="1570" width="1300" height="200" as="geometry" />
        </mxCell>
        <mxCell id="10-Q_BTeWXuV71ru6LAa-34" value="End" style="points=[[0.145,0.145,0],[0.5,0,0],[0.855,0.145,0],[1,0.5,0],[0.855,0.855,0],[0.5,1,0],[0.145,0.855,0],[0,0.5,0]];shape=mxgraph.bpmn.event;html=1;verticalLabelPosition=bottom;labelBackgroundColor=#ffffff;verticalAlign=top;align=center;perimeter=ellipsePerimeter;outlineConnect=0;aspect=fixed;outline=end;symbol=terminate2;" vertex="1" parent="10-Q_BTeWXuV71ru6LAa-78">
          <mxGeometry x="455" y="120" width="50" height="50" as="geometry" />
        </mxCell>
        <mxCell id="10-Q_BTeWXuV71ru6LAa-72" style="edgeStyle=orthogonalEdgeStyle;rounded=0;orthogonalLoop=1;jettySize=auto;html=1;exitX=1;exitY=0.5;exitDx=0;exitDy=0;entryX=1;entryY=0.5;entryDx=0;entryDy=0;entryPerimeter=0;" edge="1" parent="1" source="10-Q_BTeWXuV71ru6LAa-22" target="10-Q_BTeWXuV71ru6LAa-34">
          <mxGeometry relative="1" as="geometry">
            <Array as="points">
              <mxPoint x="770" y="295" />
              <mxPoint x="770" y="1715" />
            </Array>
          </mxGeometry>
        </mxCell>
        <mxCell id="10-Q_BTeWXuV71ru6LAa-44" style="edgeStyle=orthogonalEdgeStyle;rounded=0;orthogonalLoop=1;jettySize=auto;html=1;exitX=0.5;exitY=1;exitDx=0;exitDy=0;entryX=0;entryY=0.5;entryDx=0;entryDy=0;entryPerimeter=0;" edge="1" parent="1" source="10-Q_BTeWXuV71ru6LAa-38" target="10-Q_BTeWXuV71ru6LAa-34">
          <mxGeometry relative="1" as="geometry" />
        </mxCell>
        <mxCell id="10-Q_BTeWXuV71ru6LAa-82" style="edgeStyle=orthogonalEdgeStyle;rounded=0;orthogonalLoop=1;jettySize=auto;html=1;exitX=0.5;exitY=1;exitDx=0;exitDy=0;entryX=1;entryY=0.5;entryDx=0;entryDy=0;entryPerimeter=0;" edge="1" parent="1" source="10-Q_BTeWXuV71ru6LAa-80" target="10-Q_BTeWXuV71ru6LAa-34">
          <mxGeometry relative="1" as="geometry" />
        </mxCell>
        <mxCell id="10-Q_BTeWXuV71ru6LAa-87" style="edgeStyle=orthogonalEdgeStyle;rounded=0;orthogonalLoop=1;jettySize=auto;html=1;exitX=0.5;exitY=1;exitDx=0;exitDy=0;entryX=1;entryY=0.5;entryDx=0;entryDy=0;entryPerimeter=0;" edge="1" parent="1" source="10-Q_BTeWXuV71ru6LAa-85" target="10-Q_BTeWXuV71ru6LAa-34">
          <mxGeometry relative="1" as="geometry">
            <Array as="points">
              <mxPoint x="870" y="1715" />
            </Array>
          </mxGeometry>
        </mxCell>
        <mxCell id="10-Q_BTeWXuV71ru6LAa-94" style="edgeStyle=orthogonalEdgeStyle;rounded=0;orthogonalLoop=1;jettySize=auto;html=1;exitX=0.5;exitY=1;exitDx=0;exitDy=0;entryX=0;entryY=0.5;entryDx=0;entryDy=0;" edge="1" parent="1" source="10-Q_BTeWXuV71ru6LAa-63" target="10-Q_BTeWXuV71ru6LAa-93">
          <mxGeometry relative="1" as="geometry" />
        </mxCell>
        <mxCell id="10-Q_BTeWXuV71ru6LAa-97" style="edgeStyle=orthogonalEdgeStyle;rounded=0;orthogonalLoop=1;jettySize=auto;html=1;exitX=0.5;exitY=0;exitDx=0;exitDy=0;entryX=0.75;entryY=0;entryDx=0;entryDy=0;" edge="1" parent="1" source="10-Q_BTeWXuV71ru6LAa-96" target="10-Q_BTeWXuV71ru6LAa-25">
          <mxGeometry relative="1" as="geometry" />
        </mxCell>
        <mxCell id="10-Q_BTeWXuV71ru6LAa-111" style="edgeStyle=orthogonalEdgeStyle;rounded=0;orthogonalLoop=1;jettySize=auto;html=1;exitX=0;exitY=0.5;exitDx=0;exitDy=0;entryX=1;entryY=0.5;entryDx=0;entryDy=0;entryPerimeter=0;" edge="1" parent="1" source="10-Q_BTeWXuV71ru6LAa-105" target="10-Q_BTeWXuV71ru6LAa-102">
          <mxGeometry relative="1" as="geometry" />
        </mxCell>
        <mxCell id="10-Q_BTeWXuV71ru6LAa-115" style="edgeStyle=orthogonalEdgeStyle;rounded=0;orthogonalLoop=1;jettySize=auto;html=1;exitX=0.5;exitY=1;exitDx=0;exitDy=0;entryX=0;entryY=0.5;entryDx=0;entryDy=0;entryPerimeter=0;" edge="1" parent="1" source="10-Q_BTeWXuV71ru6LAa-113" target="10-Q_BTeWXuV71ru6LAa-34">
          <mxGeometry relative="1" as="geometry" />
        </mxCell>
        <mxCell id="10-Q_BTeWXuV71ru6LAa-126" style="edgeStyle=orthogonalEdgeStyle;rounded=0;orthogonalLoop=1;jettySize=auto;html=1;exitX=1;exitY=0.5;exitDx=0;exitDy=0;entryX=0.25;entryY=1;entryDx=0;entryDy=0;" edge="1" parent="1" source="10-Q_BTeWXuV71ru6LAa-103" target="10-Q_BTeWXuV71ru6LAa-125">
          <mxGeometry relative="1" as="geometry">
            <Array as="points">
              <mxPoint x="290" y="840" />
            </Array>
          </mxGeometry>
        </mxCell>
        <mxCell id="10-Q_BTeWXuV71ru6LAa-114" style="edgeStyle=orthogonalEdgeStyle;rounded=0;orthogonalLoop=1;jettySize=auto;html=1;exitX=0.5;exitY=1;exitDx=0;exitDy=0;entryX=0.5;entryY=0;entryDx=0;entryDy=0;" edge="1" parent="1" source="10-Q_BTeWXuV71ru6LAa-103" target="10-Q_BTeWXuV71ru6LAa-113">
          <mxGeometry relative="1" as="geometry" />
        </mxCell>
      </root>
    </mxGraphModel>
  </diagram>
</mxfile>
